# xmcd CD database file
#
# Track frame offsets:
#	150
#	20593
#	33851
#	50753
#	63870
#	77181
#	103753
#	127700
#	146624
#	164292
#	179143
#	194201
#	216013
#	236338
#	252166
#	277921
#	300795
#	318230
#	343951
#
# Disc length: 4764 seconds
#
# Revision: 1
# Processed by: cddbd v1.4PL0 Copyright (c) Steve Scherf et al.
# Submitted via: CDex 1.50Beta7
#
DISCID=0e129a13
DTITLE=Varios (para Fely) - MI TROVA DE AMOR... PARA TÍ VOL. 2
DYEAR=2003
DGENRE=Blues
TTITLE0=Juro - EO
TTITLE1=Esa Mujer - AF
TTITLE2=Para una despedida - AF
TTITLE3=Cuando un verso te nombra - AF
TTITLE4=Ay Amor - FD
TTITLE5=Tal vez - SB
TTITLE6=Aunque no estás - AF
TTITLE7=La recuerdo así - EO
TTITLE8=Te Quiero Tanto - AF
TTITLE9=Cerca del amor - PG
TTITLE10=Tanto que sentir - AF
TTITLE11=No soy un Angel - EO
TTITLE12=Todo a Pulmón - Alejandro Lerner
TTITLE13=Hoy ten miedo de mí - FD
TTITLE14=Cada vez que me amas - LE Aute
TTITLE15=Estoy Aquí - EO
TTITLE16=De Alguna Manera - LE Aute
TTITLE17=El Faro - EO
TTITLE18=Las 4 y 10 - LE Aute
EXTD=YEAR: 2003
EXTT0=
EXTT1=
EXTT2=
EXTT3=
EXTT4=
EXTT5=
EXTT6=
EXTT7=
EXTT8=
EXTT9=
EXTT10=
EXTT11=
EXTT12=
EXTT13=
EXTT14=
EXTT15=
EXTT16=
EXTT17=
EXTT18=
PLAYORDER=
